<svg width="32" height="32" viewBox="0 0 32 32" fill="none" xmlns="http://www.w3.org/2000/svg">
<g clip-path="url(#clip0_998_870)">
<path d="M16.0003 2.66675C23.3643 2.66675 29.3337 8.63608 29.3337 16.0001C29.3337 23.3641 23.3643 29.3334 16.0003 29.3334C8.63633 29.3334 2.66699 23.3641 2.66699 16.0001H5.33366C5.33366 21.8907 10.1097 26.6667 16.0003 26.6667C21.891 26.6667 26.667 21.8907 26.667 16.0001C26.667 10.1094 21.891 5.33341 16.0003 5.33341C12.715 5.33341 9.77633 6.81875 7.82033 9.15342L10.667 12.0001H2.66699V4.00008L5.92966 7.26142C8.37366 4.44808 11.979 2.66675 16.0003 2.66675ZM17.3337 9.33342V15.4467L21.6577 19.7707L19.771 21.6574L14.667 16.5507V9.33342H17.3337Z" fill="#27AE60"/>
</g>
<defs>
<clipPath id="clip0_998_870">
<rect width="32" height="32" fill="white"/>
</clipPath>
</defs>
</svg>
