<svg width="32" height="32" viewBox="0 0 32 32" fill="none" xmlns="http://www.w3.org/2000/svg">
<path d="M15.9993 26.6667C21.8904 26.6667 26.666 21.8911 26.666 16.0001C26.666 10.109 21.8904 5.33341 15.9993 5.33341C10.1083 5.33341 5.33268 10.109 5.33268 16.0001C5.33268 21.8911 10.1083 26.6667 15.9993 26.6667ZM15.9993 29.3334C8.63555 29.3334 2.66602 23.3638 2.66602 16.0001C2.66602 8.63628 8.63555 2.66675 15.9993 2.66675C23.3631 2.66675 29.3327 8.63628 29.3327 16.0001C29.3327 23.3638 23.3631 29.3334 15.9993 29.3334ZM15.9993 21.3334C18.9448 21.3334 21.3327 18.9455 21.3327 16.0001C21.3327 13.0546 18.9448 10.6667 15.9993 10.6667C13.0538 10.6667 10.666 13.0546 10.666 16.0001C10.666 18.9455 13.0538 21.3334 15.9993 21.3334ZM15.9993 24.0001C11.5811 24.0001 7.99935 20.4183 7.99935 16.0001C7.99935 11.5818 11.5811 8.00008 15.9993 8.00008C20.4176 8.00008 23.9993 11.5818 23.9993 16.0001C23.9993 20.4183 20.4176 24.0001 15.9993 24.0001ZM15.9993 18.6667C14.5265 18.6667 13.3327 17.4729 13.3327 16.0001C13.3327 14.5273 14.5265 13.3334 15.9993 13.3334C17.4721 13.3334 18.666 14.5273 18.666 16.0001C18.666 17.4729 17.4721 18.6667 15.9993 18.6667Z" fill="#27AE60"/>
</svg>
