<svg width="32" height="32" viewBox="0 0 32 32" fill="none" xmlns="http://www.w3.org/2000/svg">
<path d="M15.9988 29.3334C9.37144 29.3334 3.99886 23.9609 3.99886 17.3334C3.99886 10.706 9.37144 5.33345 15.9988 5.33345C22.6263 5.33345 27.9988 10.706 27.9988 17.3334C27.9988 23.9609 22.6263 29.3334 15.9988 29.3334ZM15.9988 26.6668C21.1535 26.6668 25.3321 22.4881 25.3321 17.3334C25.3321 12.1788 21.1535 8.00012 15.9988 8.00012C10.8442 8.00012 6.66552 12.1788 6.66552 17.3334C6.66552 22.4881 10.8442 26.6668 15.9988 26.6668ZM17.3321 17.3334H21.3321V20.0001H14.6655V10.6668H17.3321V17.3334ZM2.32812 8.37676L7.04218 3.66272L8.92779 5.54833L4.21375 10.2624L2.32812 8.37676ZM24.9556 3.66272L29.6696 8.37676L27.784 10.2624L23.0699 5.54833L24.9556 3.66272Z" fill="#27AE60"/>
</svg>
