<svg width="32" height="32" viewBox="0 0 32 32" fill="none" xmlns="http://www.w3.org/2000/svg">
<g clip-path="url(#clip0_998_876)">
<g clip-path="url(#clip1_998_876)">
<path d="M21.9864 9.76347H27.542V11.9857H21.9864V9.76347ZM19.7642 15.319H27.542V17.5412H19.7642V15.319ZM23.0975 20.8746H27.542V23.0968H23.0975V20.8746ZM3.09753 26.4301C3.09753 24.0727 4.03404 21.8117 5.70103 20.1447C7.36802 18.4777 9.62894 17.5412 11.9864 17.5412C14.3439 17.5412 16.6048 18.4777 18.2718 20.1447C19.9388 21.8117 20.8753 24.0727 20.8753 26.4301H18.6531C18.6531 24.662 17.9507 22.9663 16.7005 21.7161C15.4502 20.4658 13.7545 19.7635 11.9864 19.7635C10.2183 19.7635 8.52262 20.4658 7.27238 21.7161C6.02214 22.9663 5.31976 24.662 5.31976 26.4301H3.09753ZM11.9864 16.4301C8.30309 16.4301 5.31976 13.4468 5.31976 9.76347C5.31976 6.08013 8.30309 3.0968 11.9864 3.0968C15.6698 3.0968 18.6531 6.08013 18.6531 9.76347C18.6531 13.4468 15.6698 16.4301 11.9864 16.4301ZM11.9864 14.2079C14.442 14.2079 16.4309 12.219 16.4309 9.76347C16.4309 7.30791 14.442 5.31902 11.9864 5.31902C9.53087 5.31902 7.54198 7.30791 7.54198 9.76347C7.54198 12.219 9.53087 14.2079 11.9864 14.2079Z" fill="#27AE60"/>
</g>
</g>
<defs>
<clipPath id="clip0_998_876">
<rect width="32" height="32" fill="white"/>
</clipPath>
<clipPath id="clip1_998_876">
<rect width="26.6667" height="26.6667" fill="white" transform="translate(1.89246 3.0968)"/>
</clipPath>
</defs>
</svg>
