<svg width="33" height="32" viewBox="0 0 33 32" fill="none" xmlns="http://www.w3.org/2000/svg">
<g clip-path="url(#clip0_998_889)">
<path d="M4.14 30.8199C3.95161 30.8183 3.76583 30.7758 3.59552 30.6952C3.4252 30.6147 3.27443 30.4981 3.15363 30.3535C3.03284 30.209 2.94491 30.0399 2.89593 29.8579C2.84696 29.676 2.83811 29.4856 2.87 29.2999L3.33 26.6399L1.39 24.7599C1.21846 24.5904 1.09748 24.3764 1.04059 24.142C0.983695 23.9076 0.993134 23.662 1.06785 23.4327C1.14257 23.2034 1.27961 22.9993 1.46366 22.8434C1.64771 22.6875 1.8715 22.5859 2.11 22.5499L4.78 22.1599L6 19.7499C6.10852 19.5354 6.27438 19.3552 6.47916 19.2293C6.68394 19.1035 6.91962 19.0368 7.16 19.0368C7.40039 19.0368 7.63606 19.1035 7.84084 19.2293C8.04562 19.3552 8.21149 19.5354 8.32 19.7499L9.51 22.1699L12.18 22.5599C12.4185 22.5959 12.6423 22.6975 12.8263 22.8534C13.0104 23.0093 13.1474 23.2134 13.2222 23.4427C13.2969 23.672 13.3063 23.9176 13.2494 24.152C13.1925 24.3864 13.0715 24.6004 12.9 24.7699L10.97 26.6499L11.43 29.3099C11.4701 29.5482 11.443 29.7928 11.3518 30.0165C11.2606 30.2402 11.1089 30.434 10.9136 30.5763C10.7184 30.7186 10.4874 30.8036 10.2466 30.8219C10.0057 30.8402 9.76449 30.7911 9.55 30.6799L7.13 29.4099L4.75 30.6699C4.56199 30.7691 4.35254 30.8206 4.14 30.8199ZM7.13 27.3199C7.33921 27.3206 7.54512 27.372 7.73 27.4699L9.18 28.2299L8.9 26.6099C8.86313 26.4026 8.87757 26.1894 8.94206 25.989C9.00656 25.7885 9.11915 25.6069 9.27 25.4599L10.44 24.3199L8.82 24.0799C8.60749 24.0539 8.40481 23.9753 8.23023 23.8514C8.05565 23.7274 7.91467 23.562 7.82 23.3699L7.1 21.8999L6.37 23.3699C6.27533 23.562 6.13435 23.7274 5.95977 23.8514C5.7852 23.9753 5.58251 24.0539 5.37 24.0799L3.75 24.3199L5 25.4699C5.15085 25.6169 5.26344 25.7985 5.32794 25.999C5.39244 26.1994 5.40688 26.4126 5.37 26.6199L5.09 28.2299L6.54 27.4699C6.72202 27.374 6.92424 27.3225 7.13 27.3199ZM25.78 22.2599C25.5292 22.2572 25.2826 22.1955 25.06 22.0799L19.91 19.3699L14.76 22.0799C14.4953 22.2176 14.1971 22.2775 13.8998 22.2527C13.6025 22.228 13.3182 22.1195 13.08 21.9399C12.845 21.7636 12.6641 21.5249 12.5581 21.2509C12.452 20.9768 12.425 20.6786 12.48 20.3899L13.48 14.6799L12.71 13.9299C12.5238 13.7426 12.4192 13.4891 12.4192 13.2249C12.4192 12.9608 12.5238 12.7073 12.71 12.5199C12.8974 12.3337 13.1508 12.2292 13.415 12.2292C13.6792 12.2292 13.9326 12.3337 14.12 12.5199L15.06 13.4299C15.2473 13.6123 15.3857 13.8389 15.4626 14.0888C15.5395 14.3386 15.5524 14.6038 15.5 14.8599L14.64 19.9299L19.23 17.5099C19.4579 17.3891 19.712 17.3259 19.97 17.3259C20.228 17.3259 20.4821 17.3891 20.71 17.5099L25.3 19.9299L24.42 14.8099C24.3758 14.5544 24.3956 14.2919 24.4776 14.0458C24.5596 13.7998 24.7013 13.5779 24.89 13.3999L28.57 9.79994L23.4 8.99994C23.1434 8.96227 22.8999 8.86238 22.6907 8.70899C22.4815 8.55561 22.3131 8.35338 22.2 8.11994L19.91 3.51994L17.62 8.16994C17.5002 8.38957 17.3315 8.57867 17.1268 8.7226C16.9222 8.86653 16.6872 8.96143 16.44 8.99994L11.29 9.73994L11.63 10.0799C11.8163 10.2673 11.9208 10.5208 11.9208 10.7849C11.9208 11.0491 11.8163 11.3026 11.63 11.4899C11.537 11.5837 11.4264 11.6581 11.3046 11.7088C11.1827 11.7596 11.052 11.7857 10.92 11.7857C10.788 11.7857 10.6573 11.7596 10.5354 11.7088C10.4136 11.6581 10.303 11.5837 10.21 11.4899L9.28 10.5699C9.08218 10.3661 8.94261 10.1129 8.87578 9.83679C8.80895 9.56069 8.81731 9.27172 8.9 8.99994C8.98974 8.72206 9.15519 8.47471 9.37778 8.28569C9.60036 8.09667 9.87125 7.97347 10.16 7.92994L15.92 7.09994L18.5 1.86994C18.6309 1.60655 18.8326 1.3849 19.0826 1.22996C19.3326 1.07501 19.6209 0.99292 19.915 0.99292C20.2091 0.99292 20.4974 1.07501 20.7474 1.22996C20.9974 1.3849 21.1991 1.60655 21.33 1.86994L23.9 7.08994L29.64 7.92994C29.9332 7.96768 30.2094 8.08846 30.4362 8.27804C30.663 8.46763 30.8309 8.7181 30.92 8.99994C31.0152 9.28316 31.0282 9.58756 30.9574 9.87784C30.8866 10.1681 30.7349 10.4324 30.52 10.6399L26.37 14.6999L27.37 20.4199C27.4094 20.6485 27.3983 20.8829 27.3375 21.1067C27.2767 21.3305 27.1677 21.5383 27.0181 21.7155C26.8685 21.8928 26.682 22.0351 26.4716 22.1326C26.2611 22.2301 26.0319 22.2804 25.8 22.2799L25.78 22.2599Z" fill="#27AE60"/>
</g>
<defs>
<clipPath id="clip0_998_889">
<rect width="32" height="32" fill="white" transform="translate(0.25)"/>
</clipPath>
</defs>
</svg>
